<svg viewBox="-2 0 26 24" fill="none" xmlns="http://www.w3.org/2000/svg">
  <path fill="#4285F4" d="M23.988 12.225c0-.984-.081-1.701-.258-2.445H12.24v4.438h6.745c-.136 1.102-.87 2.764-2.502 3.88l-.023.148 3.633 2.75.252.025c2.312-2.086 3.644-5.156 3.644-8.796z"/>
  <path fill="#34A853" d="M12.239 23.918c3.304 0 6.079-1.063 8.105-2.897l-3.862-2.923c-1.034.704-2.42 1.195-4.243 1.195a7.352 7.352 0 0 1-6.963-4.969l-.143.012-3.778 2.857-.05.134c2.013 3.906 6.147 6.59 10.934 6.59z"/>
  <path fill="#FBBC05" d="M5.276 14.324a7.21 7.21 0 0 1-.408-2.365c0-.824.15-1.621.395-2.365l-.007-.159L1.43 6.532l-.126.059A11.747 11.747 0 0 0 0 11.959c0 1.927.476 3.747 1.305 5.368l3.971-3.003z"/>
  <path fill="#EB4335" d="M12.239 4.624c2.298 0 3.848.97 4.732 1.78l3.454-3.295C18.305 1.183 15.543 0 12.24 0 7.452 0 3.318 2.684 1.305 6.59l3.958 3.004a7.383 7.383 0 0 1 6.976-4.97z"/>
</svg>