<svg viewBox="0 0 24 24" fill="none" xmlns="http://www.w3.org/2000/svg">
<path d="M12 24C18.6274 24 24 18.6274 24 12C24 5.37258 18.6274 0 12 0C5.37258 0 0 5.37258 0 12C0 18.6274 5.37258 24 12 24Z" fill="#F8761F"/>
<path d="M18.5357 11.1252C18.2156 10.5536 17.7653 10.0953 17.2023 9.75035C16.7816 9.49617 16.3453 9.33485 15.8537 9.26557V7.44929C16.3453 7.23267 16.6504 6.75319 16.6504 6.19382C16.6504 5.43139 16.0613 4.81355 15.3272 4.81355C14.5926 4.81355 13.9931 5.43139 13.9931 6.19382C13.9931 6.75319 14.2806 7.23267 14.7722 7.44929V9.26639C14.3789 9.32536 13.9711 9.45261 13.5986 9.64811C12.8379 9.04854 10.3435 7.08155 8.88434 5.9327C8.91895 5.80322 8.9456 5.66975 8.9456 5.52894C8.9456 4.68447 8.28665 4 7.47265 4C6.65865 4 6 4.68447 6 5.52894C6 6.3733 6.65934 7.05798 7.47334 7.05798C7.751 7.05798 8.00781 6.97369 8.22943 6.83513L8.53737 7.07757L12.7687 10.2416C12.545 10.4547 12.3367 10.6972 12.17 10.9692C11.8323 11.5238 11.6259 12.134 11.6259 12.7996V12.9384C11.6259 13.4057 11.7115 13.8468 11.8572 14.2611C11.9855 14.623 12.1731 14.9519 12.4054 15.2494L11.0011 16.7104C10.7976 16.6318 10.5765 16.6156 10.3644 16.6639C10.1523 16.7122 9.95807 16.8228 9.80492 16.9826C9.69889 17.0921 9.61485 17.2224 9.55767 17.3658C9.50049 17.5093 9.47131 17.6631 9.47181 17.8183C9.47191 18.1339 9.59039 18.4305 9.80551 18.6537C9.91096 18.7638 10.0364 18.8511 10.1746 18.9106C10.3128 18.97 10.461 19.0004 10.6106 19C10.7602 19.0004 10.9084 18.97 11.0467 18.9105C11.1849 18.8511 11.3104 18.7638 11.4159 18.6537C11.5219 18.5442 11.6059 18.414 11.6631 18.2706C11.7203 18.1272 11.7496 17.9735 11.7492 17.8183C11.7492 17.6962 11.731 17.577 11.6968 17.4637L13.1483 15.9571C13.3473 16.0998 13.5623 16.2199 13.7933 16.3234C14.249 16.5279 14.752 16.6525 15.3025 16.6525H15.4034C16.012 16.6525 16.5861 16.5041 17.1258 16.2007C17.6945 15.88 18.1396 15.4414 18.4759 14.8815C18.8139 14.3201 19 13.6998 19 13.0174V12.9833C19 12.312 18.8503 11.6926 18.5357 11.1252ZM16.7622 14.2856C16.3682 14.74 15.9154 15.0199 15.4034 15.0199H15.3191C15.0267 15.0199 14.7406 14.936 14.4606 14.7835C14.145 14.6155 13.9051 14.3759 13.7088 14.0726C13.5058 13.7748 13.3957 13.4497 13.3957 13.1051V13.0004C13.3957 12.6615 13.4583 12.3402 13.6162 12.0367C13.7851 11.705 14.0131 11.447 14.3163 11.2419C14.614 11.0383 14.932 10.9384 15.2861 10.9384H15.3191C15.6402 10.9384 15.9442 11.0041 16.2311 11.1564C16.5234 11.3189 16.7622 11.5408 16.9474 11.8327C17.1272 12.1248 17.2342 12.4398 17.2686 12.7829C17.274 12.8542 17.2767 12.9273 17.2767 12.9971C17.2767 13.4628 17.1053 13.8941 16.7622 14.2856Z" fill="white"/>
</svg>
