<svg xmlns="http://www.w3.org/2000/svg" fill="none" viewBox="0 0 24 24"><circle cx="12" cy="12" r="9" fill="#fff"/><path fill="#0A66C2" d="M10.922 10.969a1.445 1.445 0 0 0 0 2.11 1.448 1.448 0 0 0 2.11 0 1.447 1.447 0 0 0 0-2.11 1.445 1.445 0 0 0-2.11 0ZM12 .375C5.578.375.375 5.625.375 12c0 6.422 5.203 11.625 11.625 11.625 6.375 0 11.625-5.203 11.625-11.625C23.625 5.625 18.375.375 12 .375Zm5.906 6.984-3.093 6.75a1.923 1.923 0 0 1-.75.75l-6.75 3.094c-.797.328-1.594-.469-1.266-1.265l3.094-6.75c.187-.329.421-.563.75-.75l6.75-3.094c.797-.328 1.593.468 1.265 1.265Z"/></svg>